<?xml version="1.0" standalone="no"?>
<!DOCTYPE svg PUBLIC "-//W3C//DTD SVG 20010904//EN"
 "http://www.w3.org/TR/2001/REC-SVG-20010904/DTD/svg10.dtd">
<svg version="1.0" xmlns="http://www.w3.org/2000/svg"
 width="1024.000000pt" height="1024.000000pt" viewBox="0 0 1024.000000 1024.000000"
 preserveAspectRatio="xMidYMid meet">

<g transform="translate(0.000000,1024.000000) scale(0.100000,-0.100000)"
fill="#000000" stroke="none">
<path d="M6180 7885 c-67 -21 -124 -75 -162 -153 -33 -66 -33 -68 -33 -212 1
-158 10 -195 77 -304 16 -27 26 -52 21 -55 -320 -217 -599 -335 -878 -372
-124 -16 -386 -6 -685 26 -651 70 -1107 7 -1550 -214 -399 -199 -726 -532
-910 -926 -197 -420 -247 -939 -139 -1445 85 -400 286 -852 561 -1263 228
-341 382 -530 454 -557 15 -6 261 -10 605 -10 l579 0 0 33 c0 128 -96 216
-257 236 -64 8 -69 10 -117 62 -27 30 -61 79 -75 109 -22 48 -26 69 -26 160 0
97 2 110 30 163 35 70 114 146 189 181 109 52 152 56 542 53 330 -2 371 0 514
21 132 20 282 50 341 68 13 4 18 -5 24 -43 12 -85 74 -283 126 -407 117 -279
336 -600 427 -626 25 -7 223 -10 592 -8 l555 3 -1 54 c-2 41 -8 63 -31 95 -37
52 -122 104 -186 112 -66 9 -97 38 -145 137 -68 140 -77 187 -76 392 0 167 2
187 28 270 61 199 150 351 350 595 226 275 333 454 454 761 159 400 337 634
581 762 70 37 127 57 248 87 309 77 470 193 578 415 59 120 74 191 81 375 15
374 -81 552 -395 728 -321 181 -747 307 -1156 343 -194 17 -181 13 -194 66
-37 144 -151 250 -312 288 -35 8 -69 15 -75 15 -6 0 -17 -28 -24 -62 -13 -67
-46 -165 -63 -186 -8 -11 -15 -6 -29 22 -34 67 -133 161 -200 191 -75 34 -171
42 -238 20z m168 -206 c47 -23 109 -94 147 -169 21 -41 32 -76 49 -150 l5 -26
103 12 c131 16 419 17 568 3 257 -24 599 -98 808 -175 141 -52 386 -175 464
-233 82 -61 130 -125 157 -209 18 -52 21 -88 21 -216 0 -236 -37 -353 -151
-472 -96 -99 -192 -142 -394 -174 -154 -25 -240 -51 -342 -105 -100 -53 -179
-112 -255 -193 -32 -33 -58 -59 -58 -56 0 7 99 311 135 414 18 52 45 139 59
192 15 54 29 106 33 115 3 10 -12 -9 -34 -43 -75 -112 -379 -514 -390 -514 -3
0 -2 8 2 18 29 74 94 429 110 602 6 63 5 61 -45 -85 -48 -139 -218 -574 -312
-795 -55 -129 -205 -429 -258 -515 -120 -196 -286 -417 -465 -620 -190 -217
-344 -434 -431 -610 -106 -214 -143 -364 -153 -620 l-6 -169 -52 109 c-98 209
-131 344 -140 560 -11 293 50 545 203 833 65 123 105 184 238 361 357 474 421
584 535 928 53 158 207 750 198 759 -2 2 -14 -22 -27 -54 -94 -232 -216 -419
-576 -887 -123 -160 -203 -271 -458 -632 -166 -234 -306 -404 -471 -568 -317
-318 -556 -470 -875 -558 -161 -44 -176 -44 -95 0 297 162 686 489 933 783
355 424 656 898 819 1288 55 132 121 302 118 302 -1 0 -29 -44 -60 -97 -132
-221 -388 -578 -579 -808 -271 -326 -627 -679 -953 -946 -166 -137 -458 -317
-640 -394 -98 -43 -314 -117 -320 -111 -4 4 278 240 402 336 141 109 502 407
688 568 336 290 767 695 691 649 -22 -14 -83 -46 -135 -72 -52 -26 -179 -98
-284 -160 -104 -62 -291 -172 -415 -245 -517 -305 -820 -528 -1076 -791 -333
-344 -500 -672 -530 -1044 l-7 -90 -23 79 c-72 240 -53 564 49 861 75 217 197
459 333 655 382 556 836 952 1559 1360 418 236 593 352 830 550 145 121 146
122 35 50 -92 -59 -673 -353 -990 -500 -779 -363 -1199 -658 -1546 -1090 -195
-244 -320 -455 -419 -709 -88 -227 -134 -425 -136 -588 l0 -68 -20 44 c-87
196 -103 544 -38 836 122 551 513 1072 1039 1386 268 159 534 266 1075 428
226 68 352 110 508 170 377 144 615 271 1021 542 32 22 60 38 62 36 9 -9 -81
-139 -125 -180 -28 -26 -49 -47 -47 -47 16 0 188 87 238 121 102 68 238 202
238 234 0 6 -17 17 -37 24 -88 32 -202 140 -246 234 -48 101 -57 229 -21 300
17 31 69 67 98 67 11 0 39 -10 64 -21z m-2283 -1094 c-270 -43 -622 -158 -890
-292 -245 -122 -434 -265 -614 -463 -160 -176 -280 -371 -383 -620 -53 -129
-58 -125 -27 22 115 556 523 1013 1108 1242 222 87 429 124 696 124 189 0 190
0 110 -13z m823 -100 c-13 -14 -258 -94 -463 -151 -635 -179 -933 -310 -1260
-557 -98 -74 -299 -274 -385 -382 -201 -254 -345 -538 -419 -828 -31 -121 -61
-299 -62 -375 -1 -92 -14 -86 -32 15 -38 205 -38 465 -2 645 71 351 263 698
526 954 195 188 419 328 706 440 320 126 613 187 1018 214 94 7 208 15 255 20
119 10 124 11 118 5z m2232 -1386 c-82 -321 -204 -555 -384 -735 -50 -50 -112
-105 -139 -123 l-47 -32 84 105 c180 223 359 527 466 793 19 46 35 81 37 79 2
-2 -6 -41 -17 -87z m-1826 -1075 c-19 -49 -38 -95 -43 -103 -14 -27 -308 -171
-349 -171 -3 0 29 24 71 53 84 57 296 244 330 288 11 16 22 27 24 26 1 -2 -13
-44 -33 -93z m875 -1303 c12 -29 19 -56 16 -59 -10 -11 -66 132 -71 182 l-4
51 19 -60 c10 -33 28 -84 40 -114z"/>
<path d="M7080 7101 c-71 -23 -146 -68 -209 -128 -40 -36 -70 -68 -67 -70 2
-2 19 3 36 12 31 16 91 35 152 49 24 5 26 3 26 -28 0 -111 136 -183 236 -124
99 58 100 184 3 262 -30 24 -48 30 -95 33 -31 1 -68 -1 -82 -6z"/>
<path d="M8421 6647 c-39 -20 -47 -59 -21 -112 49 -102 170 -99 170 4 0 44
-26 83 -70 106 -35 18 -48 18 -79 2z"/>
<path d="M5970 6427 c-276 -268 -611 -502 -1125 -787 -454 -252 -693 -416
-938 -644 -129 -121 -168 -171 -81 -104 156 119 378 244 889 501 399 201 535
279 709 408 172 128 394 365 570 609 38 52 73 101 79 108 22 29 -4 5 -103 -91z"/>
<path d="M7001 6202 c-101 -328 -399 -922 -694 -1382 -89 -140 -338 -513 -424
-635 l-56 -80 124 116 c577 538 859 1014 1012 1704 38 171 70 345 65 351 -2 2
-14 -32 -27 -74z"/>
</g>
</svg>
